PathFileType	4	(X/Y/Z)	/Users/itak/Documents/Research/Walk-IL/dataset/trc/00069_00006.trc
DataRate	CameraRate	NumFrames	NumMarkers	Units	OrigDataRate	OrigDataStartFrame	OrigNumFrames
100.000000	100.000000	4	53	mm	100.000000	478	765
Frame#	Time	RPSI			LPSI			L3			STRN			T10			C7			CLAV			RBAK			LBAK			LSHO			LUPA			LAEL			LAOL			LWTS			LWPS			LFRA			LIFD			LHPS			LHTS			RSHO			RUPA			RAEL			RAOL			RWTS			RWPS			RFRA			RIFD			RHTS			RHPS			RBHD			LFHD			RFHD			LBHD			LHIP			RHIP			RASI			LASI			LKNE			LTHI			LANK			LTIP			LTOE			LMT1			LMT5			LHEE			RKNE			RTHI			RANK			RTIP			RTOE			RMT1			RMT5			RHEE			
		X1	Y1	Z1	X2	Y2	Z2	X3	Y3	Z3	X4	Y4	Z4	X5	Y5	Z5	X6	Y6	Z6	X7	Y7	Z7	X8	Y8	Z8	X9	Y9	Z9	X10	Y10	Z10	X11	Y11	Z11	X12	Y12	Z12	X13	Y13	Z13	X14	Y14	Z14	X15	Y15	Z15	X16	Y16	Z16	X17	Y17	Z17	X18	Y18	Z18	X19	Y19	Z19	X20	Y20	Z20	X21	Y21	Z21	X22	Y22	Z22	X23	Y23	Z23	X24	Y24	Z24	X25	Y25	Z25	X26	Y26	Z26	X27	Y27	Z27	X28	Y28	Z28	X29	Y29	Z29	X30	Y30	Z30	X31	Y31	Z31	X32	Y32	Z32	X33	Y33	Z33	X34	Y34	Z34	X35	Y35	Z35	X36	Y36	Z36	X37	Y37	Z37	X38	Y38	Z38	X39	Y39	Z39	X40	Y40	Z40	X41	Y41	Z41	X42	Y42	Z42	X43	Y43	Z43	X44	Y44	Z44	X45	Y45	Z45	X46	Y46	Z46	X47	Y47	Z47	X48	Y48	Z48	X49	Y49	Z49	X50	Y50	Z50	X51	Y51	Z51	X52	Y52	Z52	X53	Y53	Z53	

479	4.78	593.7848510742188	996.4071655273438	-149.8718414306641	724.5310668945312	988.033447265625	-268.7210083007812	662.0687866210938	1050.854614257812	-210.0796508789062	824.6316528320312	1251.319702148438	-20.75157356262207	650.1560668945312	1185.086669921875	-226.5928802490234	686.2221069335938	1452.571533203125	-179.9114532470703	804.1555786132812	1365.436889648438	-44.40942001342773	591.5771484375	1312.645874023438	-182.2051696777344	744.4227905273438	1417.912109375	-262.5164184570312	865.7176513671875	1425.88720703125	-238.1642456054688	903.7567138671875	1308.489379882812	-319.5334167480469	930.6583251953125	1099.406860351562	-355.3190612792969	826.83935546875	1078.528686523438	-328.5784606933594	967.675537109375	850.9205322265625	-274.4572143554688	959.3118286132812	848.5623168945312	-358.369384765625	953.032958984375	990.170166015625	-360.7633972167969	962.4974975585938	664.10693359375	-273.5793151855469	983.70263671875	766.1682739257812	-344.1297912597656	988.313720703125	767.698974609375	-273.0266418457031	594.3546752929688	1413.822265625	-21.75914764404297	535.710205078125	1347.640258789062	4.97122049331665	466.8996276855469	1090.95703125	-4.989187240600586	553.567626953125	1065.253540039062	-47.72282028198242	626.3792114257812	864.83984375	93.97759246826172	547.3201904296875	832.9389038085938	73.88681030273438	474.2691040039062	1005.931945800781	15.67539215087891	679.4608764648438	685.60498046875	70.23832702636719	661.8162841796875	765.0241088867188	110.0609512329102	586.5361938476562	748.2618408203125	100.5933074951172	796.8910522460938	1646.775146484375	-158.3289031982422	697.435302734375	1644.381958007812	32.81282806396484	819.9248657226562	1669.694702148438	17.04813766479492	665.3773193359375	1612.5068359375	-133.0177459716797	866.7174682617188	931.2861938476562	-239.1663970947266	572.1235961914062	924.9443969726562	-51.08051681518555	668.333984375	939.1758422851562	34.22647857666016	887.9404907226562	943.1699829101562	-119.7450637817383	941.8363037109375	509.6637573242188	-32.29714965820312	940.6951904296875	630.41357421875	-119.1466598510742	1031.723510742188	38.11693572998047	-47.77629470825195	997.432861328125	268.3260803222656	-46.06623840332031	1030.032958984375	70.63327026367188	152.2362365722656	976.1365356445312	57.3480339050293	109.4076385498047	1071.75341796875	43.40952682495117	52.68960189819336	952.8790893554688	28.22776985168457	-94.2064208984375	661.0425415039062	479.140380859375	-94.67464447021484	632.6077270507812	739.3905639648438	-14.13123989105225	498.9927368164062	75.61904907226562	-329.8687133789062	625.6942138671875	362.3366088867188	-145.8903656005859	702.5838623046875	31.95441436767578	-297.6994323730469	664.5111694335938	47.74248123168945	-347.2165832519531	602.24853515625	42.08026885986328	-270.5306701660156	484.835205078125	107.9568405151367	-393.5450134277344	
480	4.79	600.2328491210938	997.65673828125	-143.8220520019531	732.1768188476562	989.7822875976562	-261.2853393554688	669.332275390625	1051.848754882812	-203.1731719970703	830.0466918945312	1252.860107421875	-12.87200927734375	657.4702758789062	1185.937622070312	-220.7360382080078	693.4484252929688	1453.588500976562	-174.1366424560547	809.7908325195312	1366.922119140625	-37.02634429931641	598.770263671875	1313.677001953125	-177.3858032226562	752.7137451171875	1418.857788085938	-255.8785705566406	873.6538696289062	1427.064086914062	-230.1179046630859	912.8065185546875	1309.695556640625	-310.9517211914062	940.1846313476562	1100.572387695312	-346.2022094726562	836.13330078125	1079.629760742188	-320.4219970703125	976.6897583007812	852.074462890625	-265.22265625	969.0653076171875	849.7846069335938	-349.2200012207031	962.7237548828125	991.4429931640625	-351.5320739746094	971.3583984375	665.12548828125	-264.7325744628906	993.2742919921875	767.1810913085938	-334.7498168945312	997.4052734375	768.8495483398438	-263.708740234375	599.6502685546875	1415.262817382812	-17.10629081726074	540.743408203125	1349.00341796875	8.962386131286621	472.4710693359375	1092.419189453125	-2.491311550140381	559.8057861328125	1066.788330078125	-44.02191162109375	629.2351684570312	865.2120361328125	98.07891082763672	550.39013671875	833.8172607421875	76.53739166259766	479.1963195800781	1007.369689941406	17.87628936767578	681.5859375	685.7099609375	74.50372314453125	663.8665161132812	765.1065673828125	114.3844146728516	588.6834716796875	748.8192138671875	103.6491012573242	803.5941772460938	1648.219848632812	-151.0389709472656	701.2529296875	1645.49365234375	38.58661270141602	823.86376953125	1670.900146484375	24.75435447692871	671.6889038085938	1613.791259765625	-127.8316802978516	873.900634765625	932.7474365234375	-230.4236602783203	577.1700439453125	925.7651977539062	-45.43602752685547	673.0125122070312	940.2196044921875	40.47028732299805	894.1778564453125	944.531982421875	-110.7541351318359	945.21240234375	509.7564697265625	-24.6176872253418	945.3956909179688	631.3785400390625	-110.4209823608398	1032.58837890625	37.60774612426758	-46.39250183105469	999.9462890625	267.8712463378906	-40.34278869628906	1030.912719726562	64.85111999511719	154.6861114501953	977.0225219726562	53.30192184448242	111.3863220214844	1072.50537109375	40.31725311279297	54.07507705688477	953.8397827148438	29.52611351013184	-93.35794067382812	668.3131103515625	478.8679809570312	-84.50397491455078	638.1484985351562	739.9584350585938	-7.318935394287109	501.8428344726562	81.12911224365234	-328.2474670410156	631.1074829101562	363.348388671875	-137.3494415283203	702.9918212890625	31.79640960693359	-297.3170776367188	666.2117309570312	49.79835510253906	-345.6134643554688	603.2536010742188	41.84749221801758	-269.7300415039062	489.8378295898438	116.4166641235352	-390.6395874023438	
481	4.8	606.51904296875	998.9307250976562	-138.0440826416016	739.7369384765625	991.4489135742188	-253.9408111572266	676.3973999023438	1052.98974609375	-196.4371490478516	835.2327880859375	1254.38427734375	-4.917699337005615	664.6925048828125	1186.901489257812	-214.8563995361328	700.6886596679688	1454.686279296875	-168.2422637939453	815.2828979492188	1368.41064453125	-29.52777290344238	605.9210815429688	1314.835083007812	-172.5086822509766	761.003662109375	1419.875366210938	-249.0917205810547	881.5823974609375	1428.279541015625	-221.809814453125	921.91796875	1311.001586914062	-302.1413879394531	949.7387084960938	1101.82763671875	-336.85400390625	845.4344482421875	1080.833618164062	-312.171142578125	985.6616821289062	853.3291015625	-255.6810607910156	978.8521728515625	851.0941772460938	-339.7613220214844	972.4547119140625	992.8209228515625	-342.0275268554688	980.1973266601562	666.306396484375	-255.5556793212891	1002.835876464844	768.27197265625	-325.0158996582031	1006.430480957031	770.1048583984375	-254.0692749023438	604.8814086914062	1416.810302734375	-12.40780448913574	545.6694946289062	1350.502807617188	12.97568798065186	477.9229431152344	1094.024780273438	-0.07666826248168945	565.8703002929688	1068.482177734375	-40.42786407470703	631.840087890625	865.6648559570312	102.1300048828125	553.2269287109375	834.8253784179688	79.07771301269531	483.9350280761719	1008.938720703125	19.95203399658203	683.3886108398438	685.8683471679688	78.67179107666016	665.5892944335938	765.2364501953125	118.6125869750977	590.5357666015625	749.4929809570312	106.5533981323242	810.2070922851562	1649.639038085938	-143.6793670654297	704.9683227539062	1646.6376953125	44.36836624145508	827.6574096679688	1672.142944335938	32.48064041137695	677.9590454101562	1615.021362304688	-122.5918426513672	880.8792114257812	934.2103271484375	-221.8192138671875	582.0460815429688	926.644775390625	-40.04827117919922	677.41357421875	941.349365234375	46.48929977416992	900.2027587890625	945.9140625	-101.8213272094727	948.9075317382812	509.80615234375	-17.20529556274414	950.22216796875	632.3847045898438	-101.8734130859375	1033.407470703125	37.10110092163086	-45.33722686767578	1002.537414550781	267.3819580078125	-35.14576721191406	1032.309204101562	59.68725204467773	156.531494140625	978.3023681640625	49.8542594909668	113.0086212158203	1073.533569335938	37.54560470581055	54.96035385131836	954.6730346679688	30.67597198486328	-92.58360290527344	675.7193603515625	478.5182800292969	-73.16069793701172	643.5995483398438	740.6171875	-0.2846156060695648	505.1691284179688	87.1253662109375	-326.1507873535156	636.7284545898438	364.428955078125	-127.7904663085938	703.6417846679688	31.62220573425293	-296.5290832519531	668.3508911132812	52.29965209960938	-343.4510803222656	604.4105224609375	41.57007217407227	-268.8839111328125	495.5751953125	125.5377883911133	-386.9623718261719	
482	4.81	612.6604614257812	1000.131591796875	-132.6305999755859	747.238037109375	992.955810546875	-246.7538146972656	683.2976684570312	1054.23486328125	-189.9532775878906	840.1583251953125	1255.81982421875	3.101357460021973	671.8646240234375	1187.957275390625	-208.9871063232422	707.9224243164062	1455.828369140625	-162.2317199707031	820.6011962890625	1369.833618164062	-21.91276168823242	613.0198974609375	1316.081909179688	-167.6037445068359	769.2966918945312	1420.934326171875	-242.148681640625	889.4904174804688	1429.491821289062	-213.2273864746094	931.085205078125	1312.353393554688	-293.08251953125	959.3241577148438	1103.129760742188	-327.2840270996094	854.7552490234375	1082.092651367188	-303.8584899902344	994.5842895507812	854.6361083984375	-245.8243408203125	988.67626953125	852.4450073242188	-329.9883117675781	982.2265014648438	994.2552490234375	-332.2532958984375	989.047119140625	667.6214599609375	-246.0088500976562	1012.411865234375	769.43798828125	-314.9405212402344	1015.378540039062	771.4178466796875	-244.0902709960938	610.0116577148438	1418.402709960938	-7.680006504058838	550.4557495117188	1352.078002929688	16.98682403564453	483.1975402832031	1095.712280273438	2.278043985366821	571.6744384765625	1070.269897460938	-36.92218399047852	634.21044921875	866.1731567382812	106.122314453125	555.8419189453125	835.9267578125	81.53368377685547	488.4413757324219	1010.579528808594	21.92976188659668	684.921630859375	686.071044921875	82.72300720214844	667.0358276367188	765.4022216796875	122.7302627563477	592.1304321289062	750.2535400390625	109.3025588989258	816.7177734375	1650.97509765625	-136.2554168701172	708.57080078125	1647.77783203125	50.15055465698242	831.3115234375	1673.395141601562	40.20685195922852	684.189697265625	1616.1494140625	-117.294075012207	887.69775390625	935.6141967773438	-213.3370819091797	586.7679443359375	927.5088500976562	-35.00288772583008	681.4764404296875	942.507080078125	52.25324630737305	905.9937744140625	947.2523803710938	-92.95515441894531	952.8655395507812	509.7760314941406	-10.06709098815918	955.1366577148438	633.342041015625	-93.55611419677734	1034.144653320312	36.62558364868164	-44.54997634887695	1005.160217285156	266.8565063476562	-30.46035957336426	1033.979248046875	55.15190505981445	157.9014892578125	979.7734375	46.99221038818359	114.3349227905273	1074.705810546875	35.13457107543945	55.47890853881836	955.3593139648438	31.66019821166992	-91.88079833984375	683.1273803710938	478.1116027832031	-60.72456741333008	648.8672485351562	741.3397827148438	6.94044828414917	508.9628295898438	93.60060119628906	-323.4617004394531	642.5453491210938	365.5564270019531	-117.2228622436523	704.5928344726562	31.46566772460938	-295.088134765625	670.9873657226562	55.31010055541992	-340.53955078125	605.7258911132812	41.37887191772461	-267.8876953125	501.9826049804688	135.2192535400391	-382.4056701660156	
